<?xml version="1.0" standalone="no"?>
<!DOCTYPE svg PUBLIC "-//W3C//DTD SVG 20010904//EN"
 "http://www.w3.org/TR/2001/REC-SVG-20010904/DTD/svg10.dtd">
<svg version="1.0" xmlns="http://www.w3.org/2000/svg"
 width="260.000000pt" height="260.000000pt" viewBox="0 0 260.000000 260.000000"
 preserveAspectRatio="xMidYMid meet">
<metadata>
Created by potrace 1.14, written by Peter Selinger 2001-2017
</metadata>
<g transform="translate(0.000000,260.000000) scale(0.100000,-0.100000)"
fill="#000000" stroke="none">
<path d="M1902 2063 c-30 -26 -66 -228 -44 -249 33 -34 54 -13 98 91 42 104
46 141 17 163 -23 17 -47 15 -71 -5z"/>
<path d="M1458 2016 c-31 -23 -20 -59 44 -154 63 -95 89 -112 118 -77 10 12 6
30 -21 97 -50 125 -61 143 -95 145 -16 2 -37 -3 -46 -11z"/>
<path d="M1706 1914 c-9 -8 -16 -21 -16 -28 0 -16 31 -43 48 -40 6 1 16 2 21
3 16 2 23 39 11 61 -13 24 -43 26 -64 4z"/>
<path d="M2012 1818 c-27 -27 -6 -68 35 -68 31 0 52 42 33 65 -15 18 -51 20
-68 3z"/>
<path d="M1205 1790 c-27 -10 -46 -34 -47 -57 -1 -20 12 -115 17 -123 2 -3 6
-26 10 -50 3 -25 8 -52 10 -60 2 -8 7 -31 10 -50 3 -19 10 -60 15 -90 5 -30
12 -73 16 -95 11 -74 43 -101 95 -83 36 12 47 43 37 98 -9 47 -12 67 -29 165
-5 33 -12 71 -15 85 l-6 25 24 -21 c40 -36 57 -37 78 -2 22 37 17 51 52 -147
24 -138 38 -165 83 -165 31 0 65 33 65 63 0 19 -20 142 -35 217 -6 27 -24 137
-31 185 -11 72 -34 101 -90 111 -30 6 -76 -20 -96 -53 -12 -21 -17 -23 -29
-11 -58 53 -99 71 -134 58z"/>
<path d="M2172 1738 c-94 -64 -111 -90 -77 -118 16 -13 33 -9 110 25 28 12 65
28 83 35 51 20 69 72 36 104 -27 27 -57 18 -152 -46z"/>
<path d="M969 1745 c-100 -34 -125 -50 -147 -91 -18 -34 -21 -67 -10 -120 5
-27 11 -60 13 -74 2 -14 13 -79 25 -145 11 -66 23 -131 25 -145 6 -37 43 -63
79 -56 52 11 62 45 41 146 -16 75 -18 112 -5 120 14 9 51 -5 48 -18 -2 -6 10
-78 27 -161 9 -49 64 -72 102 -43 26 20 33 52 22 102 -4 19 -19 103 -34 185
-14 83 -27 162 -30 175 -3 14 -8 41 -11 60 -15 83 -48 97 -145 65z m27 -162
c3 -16 7 -33 9 -40 6 -19 -19 -45 -37 -38 -21 8 -33 72 -17 91 18 22 38 16 45
-13z"/>
<path d="M1685 1729 c-38 -10 -63 -52 -69 -114 -4 -42 -1 -73 18 -161 21 -98
133 -194 229 -195 58 -1 123 27 150 65 33 47 30 137 -8 202 -73 125 -232 226
-320 203z m168 -167 c26 -23 45 -63 41 -85 -12 -80 -121 -49 -129 37 -5 54 8
76 42 70 15 -3 36 -13 46 -22z"/>
<path d="M185 1711 c-39 -10 -75 -29 -75 -41 0 -10 0 -10 129 -86 84 -49 182
-137 205 -184 19 -37 43 -134 57 -225 14 -93 22 -113 52 -124 28 -11 75 6 82
29 5 17 1 78 -10 130 -3 14 -7 36 -10 50 -28 149 -70 242 -148 327 -99 106
-190 146 -282 124z"/>
<path d="M659 1597 c-21 -16 -30 -57 -20 -93 9 -34 4 -54 -14 -54 -18 0 -26
-25 -18 -63 6 -35 31 -69 44 -61 12 7 26 -26 34 -76 21 -143 30 -161 85 -163
24 -2 37 4 51 23 16 23 17 31 4 100 -7 41 -15 91 -18 110 -7 49 -36 211 -42
237 -11 48 -68 69 -106 40z"/>
<path d="M2166 1531 c-23 -25 -13 -59 19 -67 33 -8 59 18 49 48 -12 41 -41 49
-68 19z"/>
<path d="M2132 1389 c-12 -5 -22 -17 -22 -28 0 -20 24 -51 40 -51 5 0 38 -13
73 -29 86 -40 123 -45 148 -20 10 10 19 28 19 39 0 23 -33 60 -55 60 -8 0 -17
0 -20 1 -2 1 -40 9 -83 18 -48 11 -86 15 -100 10z"/>
<path d="M2060 1302 c-31 -10 -50 -36 -50 -68 0 -41 9 -64 25 -64 11 0 21 -31
30 -95 14 -98 49 -265 60 -286 17 -31 65 -54 99 -45 34 8 134 68 141 84 3 7
-14 24 -40 40 -45 27 -72 67 -81 120 -28 156 -67 275 -99 302 -15 13 -64 19
-85 12z"/>
<path d="M1685 1185 c-76 -16 -86 -21 -108 -51 -24 -32 -24 -101 -2 -184 2 -8
7 -31 10 -50 44 -265 54 -305 85 -332 37 -34 68 -35 164 -7 90 27 182 75 205
108 67 94 26 223 -86 272 -42 18 -42 18 -28 46 32 61 11 150 -45 189 -36 25
-106 28 -195 9z m123 -151 c3 -34 -12 -51 -49 -58 -37 -6 -59 11 -59 45 0 34
25 50 75 46 26 -2 30 -6 33 -33z m99 -196 c47 -39 25 -99 -46 -123 -59 -20
-68 -19 -96 10 -42 41 -24 108 35 127 25 9 90 0 107 -14z"/>
<path d="M1388 1130 c-15 -5 -45 -11 -65 -14 -152 -21 -178 -32 -199 -82 -8
-19 -13 -38 -10 -42 2 -4 17 -77 31 -162 15 -85 29 -164 31 -175 3 -11 7 -35
10 -54 3 -18 7 -43 10 -55 2 -11 14 -30 28 -42 25 -23 78 -25 211 -10 152 18
188 45 154 120 -11 23 -61 51 -72 40 -2 -2 -44 -7 -94 -10 -85 -6 -91 -5 -105
15 -17 24 -14 54 8 72 8 7 49 18 91 25 84 15 113 34 113 74 0 44 -31 64 -87
56 -141 -18 -148 -19 -161 -3 -42 50 -12 84 90 103 113 21 117 23 132 52 12
23 12 32 1 60 -8 17 -20 33 -27 33 -7 1 -24 2 -38 4 -14 1 -37 -1 -52 -5z"/>
<path d="M790 1028 c-52 -10 -109 -20 -127 -22 -78 -10 -93 -34 -68 -106 38
-108 154 -260 198 -260 17 0 19 5 14 45 -3 32 0 50 10 60 34 35 49 11 70 -110
11 -66 61 -104 170 -128 66 -14 83 -15 101 -4 27 17 12 44 -40 72 -74 39 -95
61 -118 122 -27 74 -26 88 15 113 19 12 42 31 50 43 32 46 10 138 -44 176 -37
26 -88 26 -231 -1z m108 -110 c29 -29 8 -48 -71 -62 -33 -6 -38 -4 -46 16 -11
28 -3 38 41 48 49 12 63 11 76 -2z"/>
</g>
</svg>
