<svg width="32" height="32" viewBox="0 0 32 32" fill="none" xmlns="http://www.w3.org/2000/svg">
<circle cx="16" cy="16" r="16" fill="#1877F2"/>
<path d="M2.516 18H3.59V16.296H5.114V15.402H3.59V14.424H5.366V13.53H2.516V18ZM6.61241 18.084C6.99041 18.084 7.30841 17.91 7.59041 17.658H7.62041L7.69241 18H8.56241V16.062C8.56241 14.994 8.06441 14.502 7.18241 14.502C6.64841 14.502 6.16241 14.682 5.71241 14.952L6.08441 15.654C6.42641 15.462 6.70841 15.354 6.97841 15.354C7.32641 15.354 7.47041 15.516 7.49441 15.792C6.16241 15.936 5.59841 16.326 5.59841 17.046C5.59841 17.616 5.98241 18.084 6.61241 18.084ZM6.97841 17.256C6.75641 17.256 6.61241 17.16 6.61241 16.962C6.61241 16.722 6.82841 16.524 7.49441 16.44V16.986C7.33841 17.154 7.19441 17.256 6.97841 17.256ZM10.8931 18.084C11.2531 18.084 11.6851 17.976 12.0211 17.682L11.6071 16.98C11.4331 17.118 11.2291 17.22 11.0131 17.22C10.5991 17.22 10.2871 16.86 10.2871 16.29C10.2871 15.726 10.5811 15.366 11.0551 15.366C11.1991 15.366 11.3311 15.42 11.4871 15.546L11.9851 14.868C11.7271 14.646 11.4031 14.502 10.9891 14.502C10.0351 14.502 9.19508 15.162 9.19508 16.29C9.19508 17.424 9.93308 18.084 10.8931 18.084ZM13.9175 18.084C14.3135 18.084 14.7815 17.946 15.1355 17.694L14.7815 17.052C14.5355 17.196 14.3075 17.268 14.0615 17.268C13.6295 17.268 13.3055 17.076 13.2095 16.608H15.2135C15.2375 16.524 15.2615 16.338 15.2615 16.146C15.2615 15.216 14.7815 14.502 13.7975 14.502C12.9755 14.502 12.1775 15.186 12.1775 16.29C12.1775 17.424 12.9335 18.084 13.9175 18.084ZM13.1915 15.906C13.2635 15.504 13.5215 15.318 13.8155 15.318C14.2055 15.318 14.3555 15.57 14.3555 15.906H13.1915ZM17.7677 18.084C18.4997 18.084 19.2017 17.412 19.2017 16.23C19.2017 15.186 18.6797 14.502 17.8637 14.502C17.5517 14.502 17.2337 14.64 16.9817 14.868L17.0117 14.358V13.206H15.9437V18H16.7777L16.8617 17.634H16.8917C17.1557 17.928 17.4677 18.084 17.7677 18.084ZM17.5157 17.208C17.3537 17.208 17.1737 17.16 17.0117 17.01V15.66C17.1917 15.462 17.3537 15.372 17.5517 15.372C17.9297 15.372 18.1037 15.654 18.1037 16.254C18.1037 16.938 17.8397 17.208 17.5157 17.208ZM21.3749 18.084C22.2389 18.084 23.0429 17.424 23.0429 16.29C23.0429 15.162 22.2389 14.502 21.3749 14.502C20.5049 14.502 19.7009 15.162 19.7009 16.29C19.7009 17.424 20.5049 18.084 21.3749 18.084ZM21.3749 17.22C20.9729 17.22 20.7929 16.86 20.7929 16.29C20.7929 15.726 20.9729 15.366 21.3749 15.366C21.7709 15.366 21.9509 15.726 21.9509 16.29C21.9509 16.86 21.7709 17.22 21.3749 17.22ZM25.1953 18.084C26.0593 18.084 26.8633 17.424 26.8633 16.29C26.8633 15.162 26.0593 14.502 25.1953 14.502C24.3253 14.502 23.5213 15.162 23.5213 16.29C23.5213 17.424 24.3253 18.084 25.1953 18.084ZM25.1953 17.22C24.7933 17.22 24.6133 16.86 24.6133 16.29C24.6133 15.726 24.7933 15.366 25.1953 15.366C25.5913 15.366 25.7713 15.726 25.7713 16.29C25.7713 16.86 25.5913 17.22 25.1953 17.22ZM27.5336 18H28.5836V17.154L28.9796 16.704L29.7176 18H30.8756L29.6036 16.008L30.7916 14.586H29.6216L28.6136 15.87H28.5836V13.206H27.5336V18Z" fill="white"/>
</svg>
