<svg width="32" height="32" viewBox="0 0 32 32" fill="none" xmlns="http://www.w3.org/2000/svg">
<circle cx="16" cy="16" r="16" fill="#CB007E"/>
<path d="M1.516 18H2.59V13.53H1.516V18ZM3.52966 18H4.59766V15.72C4.80166 15.522 4.94566 15.414 5.18566 15.414C5.45566 15.414 5.58166 15.546 5.58166 16.02V18H6.64966V15.888C6.64966 15.036 6.33166 14.502 5.58766 14.502C5.12566 14.502 4.77766 14.736 4.49566 15.012H4.47766L4.39966 14.586H3.52966V18ZM8.49888 18.084C9.42888 18.084 9.92088 17.598 9.92088 16.968C9.92088 16.35 9.44688 16.104 9.02088 15.942C8.66688 15.816 8.37288 15.738 8.37288 15.534C8.37288 15.372 8.48688 15.288 8.73288 15.288C8.95488 15.288 9.19488 15.402 9.44088 15.576L9.91488 14.94C9.62688 14.718 9.23088 14.502 8.69688 14.502C7.89888 14.502 7.37688 14.94 7.37688 15.582C7.37688 16.152 7.83887 16.428 8.24688 16.59C8.59488 16.728 8.92488 16.824 8.92488 17.028C8.92488 17.196 8.80488 17.298 8.52288 17.298C8.25288 17.298 7.97088 17.172 7.65888 16.938L7.18488 17.604C7.53288 17.892 8.05488 18.084 8.49888 18.084ZM11.6998 18.084C12.0478 18.084 12.2938 18.012 12.4738 17.958L12.3058 17.184C12.2218 17.214 12.1018 17.25 11.9938 17.25C11.7418 17.25 11.5618 17.1 11.5618 16.722V15.42H12.3658V14.586H11.5618V13.68H10.6798L10.5598 14.586L10.0318 14.628V15.42H10.4938V16.734C10.4938 17.538 10.8418 18.084 11.6998 18.084ZM13.7042 18.084C14.0822 18.084 14.4002 17.91 14.6822 17.658H14.7122L14.7842 18H15.6542V16.062C15.6542 14.994 15.1562 14.502 14.2742 14.502C13.7402 14.502 13.2542 14.682 12.8042 14.952L13.1762 15.654C13.5182 15.462 13.8002 15.354 14.0702 15.354C14.4182 15.354 14.5622 15.516 14.5862 15.792C13.2542 15.936 12.6902 16.326 12.6902 17.046C12.6902 17.616 13.0742 18.084 13.7042 18.084ZM14.0702 17.256C13.8482 17.256 13.7042 17.16 13.7042 16.962C13.7042 16.722 13.9202 16.524 14.5862 16.44V16.986C14.4302 17.154 14.2862 17.256 14.0702 17.256ZM17.7029 19.434C18.8909 19.434 19.6409 18.924 19.6409 18.204C19.6409 17.586 19.1609 17.328 18.3209 17.328H17.7809C17.4149 17.328 17.2769 17.256 17.2769 17.1C17.2769 16.98 17.3129 16.932 17.3849 16.86C17.5349 16.902 17.6729 16.92 17.7869 16.92C18.5429 16.92 19.1489 16.572 19.1489 15.774C19.1489 15.612 19.1069 15.456 19.0589 15.36H19.5809V14.586H18.3269C18.1709 14.532 17.9849 14.502 17.7869 14.502C17.0489 14.502 16.3589 14.91 16.3589 15.738C16.3589 16.14 16.5809 16.458 16.8269 16.626V16.65C16.5989 16.806 16.4429 17.046 16.4429 17.286C16.4429 17.574 16.5749 17.754 16.7549 17.874V17.904C16.4369 18.066 16.2749 18.294 16.2749 18.576C16.2749 19.188 16.9169 19.434 17.7029 19.434ZM17.7869 16.278C17.5409 16.278 17.3549 16.098 17.3549 15.738C17.3549 15.396 17.5409 15.216 17.7869 15.216C18.0389 15.216 18.2249 15.396 18.2249 15.738C18.2249 16.098 18.0389 16.278 17.7869 16.278ZM17.8709 18.768C17.4389 18.768 17.1509 18.648 17.1509 18.408C17.1509 18.294 17.1989 18.198 17.3069 18.102C17.4149 18.132 17.5469 18.144 17.7929 18.144H18.1169C18.4349 18.144 18.6149 18.186 18.6149 18.39C18.6149 18.606 18.3089 18.768 17.8709 18.768ZM20.1761 18H21.2441V16.05C21.4181 15.6 21.7241 15.438 21.9761 15.438C22.1261 15.438 22.2281 15.462 22.3541 15.492L22.5281 14.574C22.4321 14.532 22.3181 14.502 22.1141 14.502C21.7721 14.502 21.3941 14.724 21.1421 15.18H21.1241L21.0461 14.586H20.1761V18ZM23.5831 18.084C23.9611 18.084 24.2791 17.91 24.5611 17.658H24.5911L24.6631 18H25.5331V16.062C25.5331 14.994 25.0351 14.502 24.1531 14.502C23.6191 14.502 23.1331 14.682 22.6831 14.952L23.0551 15.654C23.3971 15.462 23.6791 15.354 23.9491 15.354C24.2971 15.354 24.4411 15.516 24.4651 15.792C23.1331 15.936 22.5691 16.326 22.5691 17.046C22.5691 17.616 22.9531 18.084 23.5831 18.084ZM23.9491 17.256C23.7271 17.256 23.5831 17.16 23.5831 16.962C23.5831 16.722 23.7991 16.524 24.4651 16.44V16.986C24.3091 17.154 24.1651 17.256 23.9491 17.256ZM26.3578 18H27.4258V15.72C27.6238 15.51 27.8098 15.414 27.9658 15.414C28.2358 15.414 28.3618 15.546 28.3618 16.02V18H29.4298V15.72C29.6338 15.51 29.8198 15.414 29.9758 15.414C30.2458 15.414 30.3658 15.546 30.3658 16.02V18H31.4338V15.888C31.4338 15.036 31.1098 14.502 30.3658 14.502C29.9098 14.502 29.5918 14.766 29.2978 15.066C29.1238 14.7 28.8358 14.502 28.3618 14.502C27.8998 14.502 27.6058 14.736 27.3238 15.018H27.3058L27.2278 14.586H26.3578V18Z" fill="white"/>
</svg>
