<svg width="24" height="18" viewBox="0 0 24 18" fill="none" xmlns="http://www.w3.org/2000/svg">
<path d="M20.8111 16.9146C21.3162 17.5712 22.2579 17.694 22.9146 17.1889C23.5712 16.6838 23.694 15.7421 23.1889 15.0854L20.8111 16.9146ZM12 3L13.1889 2.08544L12 0.539819L10.8111 2.08543L12 3ZM0.811062 15.0854C0.305962 15.7421 0.428801 16.6838 1.08543 17.1889C1.74206 17.694 2.68383 17.5712 3.18893 16.9146L0.811062 15.0854ZM23.1889 15.0854L13.1889 2.08544L10.8111 3.91457L20.8111 16.9146L23.1889 15.0854ZM10.8111 2.08543L0.811062 15.0854L3.18893 16.9146L13.1889 3.91457L10.8111 2.08543Z" fill="#171717"/>
</svg>
