<svg width="100" height="96" viewBox="0 0 100 96" fill="none" xmlns="http://www.w3.org/2000/svg">
<mask id="mask0_221_2704" style="mask-type:alpha" maskUnits="userSpaceOnUse" x="5" y="21" width="94" height="39">
<path fill-rule="evenodd" clip-rule="evenodd" d="M26.1775 41.5369L26.2234 41.4929C27.5636 40.2134 29.6942 40.2554 30.9822 41.5868C32.2702 42.9181 32.2279 45.0348 30.8877 46.3143L30.8501 46.3503C29.5122 47.6322 27.3815 47.5938 26.0912 46.2646C24.8009 44.9354 24.8395 42.8187 26.1775 41.5369ZM48.7374 34.6698C48.7711 32.8235 50.305 31.3539 52.1635 31.3874L52.227 31.3886C54.0854 31.4252 55.562 32.9516 55.5251 34.7979C55.4882 36.6441 53.9518 38.111 52.0934 38.0744L52.0415 38.0734C50.1831 38.04 48.7038 36.5161 48.7374 34.6698ZM73.0033 42.3794C74.3413 41.0975 76.4719 41.1359 77.7622 42.4651L77.8064 42.5107C79.0944 43.8421 79.0522 45.9587 77.712 47.2383C76.3718 48.5178 74.2413 48.4758 72.9532 47.1445L72.917 47.1071C71.6267 45.7779 71.6653 43.6612 73.0033 42.3794Z" fill="#FF9900"/>
<path fill-rule="evenodd" clip-rule="evenodd" d="M30.4083 28.308C29.0865 25.8507 30.0129 22.7688 32.6067 21.7091C35.2005 20.6494 38.0412 22.1922 38.842 24.8625L43.0433 38.8728C43.4855 40.3474 42.6337 41.8864 41.2014 42.4716C39.769 43.0568 38.0738 42.5583 37.3438 41.2013L30.4083 28.308ZM64.6201 24.9344C65.4339 22.2643 68.2856 20.7315 70.8773 21.8057C73.469 22.8798 74.3787 25.9716 73.0411 28.4246L66.0316 41.2789C65.2958 42.6283 63.6024 43.1154 62.1766 42.5245C60.7509 41.9336 59.908 40.3953 60.3556 38.9264L64.6201 24.9344ZM8.62593 54.7413C5.93821 53.9329 4.39529 51.0998 5.47653 48.5251C6.55777 45.9503 9.6699 45.0466 12.1391 46.3755L25.0782 53.339C26.4365 54.07 26.9268 55.7524 26.332 57.1688C25.7372 58.5852 24.1887 59.4226 22.7102 58.9779L8.62593 54.7413ZM91.2277 46.5742C93.7012 45.261 96.8034 46.1813 97.87 48.7581C98.9367 51.3349 97.3837 54.1571 94.6959 54.9526L80.5933 59.1264C79.109 59.5657 77.5598 58.7195 76.9707 57.2965C76.3817 55.8735 76.8834 54.1894 78.2494 53.4643L91.2277 46.5742Z" fill="#FF9900"/>
</mask>
<g mask="url(#mask0_221_2704)">
<rect x="-3" y="13" width="110" height="58" fill="#FF9900"/>
</g>
</svg>
