<svg width="30" height="35" viewBox="0 0 30 35" fill="none" xmlns="http://www.w3.org/2000/svg">
<path d="M13 32.3999C13 33.5045 13.8954 34.3999 15 34.3999C16.1046 34.3999 17 33.5045 17 32.3999L13 32.3999ZM16.4142 0.985689C15.6332 0.204639 14.3668 0.204639 13.5858 0.985689L0.857865 13.7136C0.0768164 14.4947 0.0768163 15.761 0.857865 16.542C1.63891 17.3231 2.90524 17.3231 3.68629 16.542L15 5.22833L26.3137 16.542C27.0948 17.3231 28.3611 17.3231 29.1421 16.542C29.9232 15.761 29.9232 14.4947 29.1421 13.7136L16.4142 0.985689ZM17 32.3999L17 2.3999L13 2.3999L13 32.3999L17 32.3999Z" fill="white"/>
</svg>
